<svg width="24" height="23" viewBox="0 0 24 23" fill="none" xmlns="http://www.w3.org/2000/svg">
<path fill-rule="evenodd" clip-rule="evenodd" d="M0 0.810711C0 0.595697 0.0842863 0.38949 0.234317 0.237452C0.384347 0.0854141 0.587832 0 0.800007 0H3.20003C3.37848 4.99584e-05 3.55179 0.0605612 3.6924 0.171911C3.83301 0.283261 3.93285 0.439055 3.97604 0.614519L4.62404 3.24284H23.2002C23.3217 3.24288 23.4416 3.27097 23.5509 3.32497C23.6601 3.37898 23.7557 3.45749 23.8305 3.55455C23.9053 3.6516 23.9573 3.76465 23.9825 3.8851C24.0078 4.00556 24.0056 4.13026 23.9762 4.24975L21.5762 13.9783C21.533 14.1537 21.4332 14.3095 21.2926 14.4209C21.152 14.5322 20.9786 14.5928 20.8002 14.5928H6.40006C6.22161 14.5928 6.0483 14.5322 5.90768 14.4209C5.76707 14.3095 5.66724 14.1537 5.62405 13.9783L2.57602 1.62142H0.800007C0.587832 1.62142 0.384347 1.53601 0.234317 1.38397C0.0842863 1.23193 0 1.02573 0 0.810711ZM8.00007 17.8356C7.57572 17.8356 7.16875 18.0065 6.86869 18.3105C6.56863 18.6146 6.40006 19.027 6.40006 19.4571C6.40006 19.8871 6.56863 20.2995 6.86869 20.6036C7.16875 20.9077 7.57572 21.0785 8.00007 21.0785C8.42442 21.0785 8.83139 20.9077 9.13145 20.6036C9.43152 20.2995 9.60009 19.8871 9.60009 19.4571C9.60009 19.027 9.43152 18.6146 9.13145 18.3105C8.83139 18.0065 8.42442 17.8356 8.00007 17.8356ZM4.80004 19.4571C4.80004 18.597 5.13719 17.7722 5.73731 17.164C6.33743 16.5559 7.15137 16.2142 8.00007 16.2142C8.84877 16.2142 9.66271 16.5559 10.2628 17.164C10.863 17.7722 11.2001 18.597 11.2001 19.4571C11.2001 20.3171 10.863 21.142 10.2628 21.7501C9.66271 22.3583 8.84877 22.6999 8.00007 22.6999C7.15137 22.6999 6.33743 22.3583 5.73731 21.7501C5.13719 21.142 4.80004 20.3171 4.80004 19.4571ZM19.2002 17.8356C18.7758 17.8356 18.3689 18.0065 18.0688 18.3105C17.7687 18.6146 17.6002 19.027 17.6002 19.4571C17.6002 19.8871 17.7687 20.2995 18.0688 20.6036C18.3689 20.9077 18.7758 21.0785 19.2002 21.0785C19.6245 21.0785 20.0315 20.9077 20.3316 20.6036C20.6316 20.2995 20.8002 19.8871 20.8002 19.4571C20.8002 19.027 20.6316 18.6146 20.3316 18.3105C20.0315 18.0065 19.6245 17.8356 19.2002 17.8356ZM16.0001 19.4571C16.0001 18.597 16.3373 17.7722 16.9374 17.164C17.5375 16.5559 18.3515 16.2142 19.2002 16.2142C20.0489 16.2142 20.8628 16.5559 21.4629 17.164C22.0631 17.7722 22.4002 18.597 22.4002 19.4571C22.4002 20.3171 22.0631 21.142 21.4629 21.7501C20.8628 22.3583 20.0489 22.6999 19.2002 22.6999C18.3515 22.6999 17.5375 22.3583 16.9374 21.7501C16.3373 21.142 16.0001 20.3171 16.0001 19.4571Z" fill="#49A8A8"/>
</svg>
