<svg width="294" height="58" viewBox="0 0 294 58" fill="none" xmlns="http://www.w3.org/2000/svg">
<path d="M101.359 17.8182L100.592 22.3821H88.7543L85.1747 44H79.6392L83.9858 17.8182H101.359ZM104.846 36.8153L113.987 24.3636H119.369L116.096 44H110.893L112.977 31.5099L103.849 44H98.4542L101.727 24.3636H106.917L104.846 36.8153ZM120.497 44L123.77 24.3636H140.926L137.653 44H132.463L135.033 28.6463H128.193L125.624 44H120.497ZM150.907 44.3835C148.896 44.3835 147.23 43.9744 145.909 43.1562C144.588 42.3295 143.659 41.1619 143.122 39.6534C142.593 38.1364 142.504 36.3423 142.853 34.2713C143.194 32.2514 143.88 30.4787 144.912 28.9531C145.951 27.4276 147.255 26.2386 148.824 25.3864C150.392 24.5341 152.139 24.108 154.065 24.108C155.36 24.108 156.532 24.3168 157.581 24.7344C158.637 25.1435 159.515 25.7656 160.214 26.6009C160.913 27.4276 161.39 28.4631 161.646 29.7074C161.91 30.9517 161.906 32.4091 161.633 34.0795L161.39 35.5753H144.822L145.346 32.2003H156.801C156.929 31.4162 156.877 30.7216 156.647 30.1165C156.417 29.5114 156.034 29.0384 155.497 28.6974C154.96 28.348 154.299 28.1733 153.515 28.1733C152.714 28.1733 151.964 28.3693 151.265 28.7614C150.566 29.1534 149.978 29.669 149.501 30.3082C149.032 30.9389 148.73 31.625 148.593 32.3665L147.993 35.7159C147.822 36.7472 147.856 37.6037 148.095 38.2855C148.342 38.9673 148.768 39.4787 149.373 39.8196C149.978 40.152 150.745 40.3182 151.674 40.3182C152.279 40.3182 152.846 40.233 153.375 40.0625C153.912 39.892 154.389 39.6406 154.806 39.3082C155.224 38.9673 155.565 38.5455 155.829 38.0426L160.802 38.375C160.342 39.5852 159.643 40.642 158.706 41.5455C157.768 42.4403 156.639 43.1392 155.318 43.642C154.005 44.1364 152.535 44.3835 150.907 44.3835ZM162.371 51.3636L166.897 24.3636H172.266L171.717 27.6619H171.96C172.283 27.1335 172.714 26.5966 173.251 26.0511C173.796 25.4972 174.474 25.0369 175.283 24.6705C176.093 24.2955 177.043 24.108 178.134 24.108C179.575 24.108 180.832 24.483 181.906 25.233C182.979 25.9744 183.755 27.0952 184.232 28.5952C184.718 30.0866 184.773 31.9574 184.398 34.2074C184.04 36.3977 183.38 38.2472 182.417 39.7557C181.462 41.2557 180.316 42.3935 178.978 43.169C177.648 43.9361 176.238 44.3196 174.746 44.3196C173.69 44.3196 172.82 44.1449 172.138 43.7955C171.465 43.446 170.941 43.0071 170.566 42.4787C170.191 41.9418 169.927 41.4006 169.773 40.8551H169.569L167.83 51.3636H162.371ZM170.592 34.1818C170.404 35.3494 170.396 36.3679 170.566 37.2372C170.745 38.1065 171.103 38.7841 171.64 39.2699C172.177 39.7472 172.884 39.9858 173.762 39.9858C174.648 39.9858 175.437 39.7429 176.127 39.2571C176.817 38.7628 177.393 38.081 177.853 37.2116C178.313 36.3338 178.641 35.3239 178.837 34.1818C179.016 33.0483 179.021 32.0511 178.85 31.1903C178.68 30.3295 178.33 29.6562 177.802 29.1705C177.273 28.6847 176.558 28.4418 175.654 28.4418C174.776 28.4418 173.988 28.6761 173.289 29.1449C172.599 29.6136 172.023 30.2784 171.563 31.1392C171.103 32 170.779 33.0142 170.592 34.1818ZM202.319 44L195.76 32.8395H193.868L192.015 44H186.479L190.826 17.8182H196.361L194.623 28.2756H195.735L206.167 17.8182H213.057L200.836 29.9631L209.184 44H202.319ZM211.903 44L215.176 24.3636H223.537C225.949 24.3636 227.781 24.8239 229.034 25.7443C230.295 26.6648 230.781 27.973 230.491 29.669C230.321 30.7344 229.78 31.6207 228.868 32.3281C227.956 33.0355 226.78 33.5128 225.339 33.7599C226.507 33.8452 227.466 34.1136 228.216 34.5653C228.974 35.0085 229.511 35.5838 229.827 36.2912C230.151 36.9986 230.244 37.7827 230.108 38.6435C229.92 39.7599 229.46 40.7187 228.727 41.5199C228.003 42.321 227.036 42.9347 225.825 43.3608C224.624 43.7869 223.2 44 221.555 44H211.903ZM217.643 39.9219H222.233C223 39.9219 223.631 39.7386 224.125 39.3722C224.619 39.0057 224.913 38.5114 225.007 37.8892C225.135 37.1903 225.011 36.6406 224.636 36.2401C224.27 35.8395 223.707 35.6392 222.949 35.6392H218.359L217.643 39.9219ZM218.896 32.4432H222.31C222.847 32.4432 223.324 32.3665 223.741 32.2131C224.159 32.0511 224.496 31.821 224.751 31.5227C225.016 31.2244 225.182 30.8707 225.25 30.4616C225.352 29.8651 225.186 29.3963 224.751 29.0554C224.317 28.706 223.678 28.5312 222.834 28.5312H219.536L218.896 32.4432ZM238.191 44.3707C236.946 44.3707 235.868 44.1534 234.956 43.7188C234.053 43.2756 233.388 42.6193 232.962 41.75C232.536 40.8807 232.429 39.8026 232.642 38.5156C232.83 37.4247 233.184 36.5128 233.703 35.7798C234.232 35.0384 234.875 34.4418 235.634 33.9901C236.392 33.5384 237.232 33.1932 238.152 32.9545C239.081 32.7159 240.04 32.554 241.029 32.4688C242.171 32.3494 243.1 32.2344 243.816 32.1236C244.54 32.0128 245.081 31.8551 245.439 31.6506C245.797 31.4375 246.015 31.1222 246.091 30.7045V30.6278C246.219 29.8267 246.07 29.2045 245.644 28.7614C245.226 28.3097 244.557 28.0838 243.637 28.0838C242.665 28.0838 241.838 28.2969 241.157 28.723C240.483 29.1491 240.002 29.6903 239.712 30.3466L234.752 29.9375C235.195 28.7443 235.864 27.7131 236.759 26.8438C237.662 25.9659 238.749 25.2926 240.019 24.8239C241.289 24.3466 242.712 24.108 244.289 24.108C245.38 24.108 246.398 24.2358 247.344 24.4915C248.299 24.7472 249.121 25.1435 249.811 25.6804C250.51 26.2173 251.013 26.9077 251.32 27.7514C251.635 28.5866 251.699 29.5881 251.512 30.7557L249.3 44H244.135L244.596 41.277H244.442C244.025 41.8906 243.513 42.4318 242.908 42.9006C242.303 43.3608 241.608 43.723 240.824 43.9872C240.04 44.2429 239.162 44.3707 238.191 44.3707ZM240.377 40.6122C241.169 40.6122 241.898 40.4545 242.563 40.1392C243.236 39.8153 243.79 39.3807 244.225 38.8352C244.668 38.2898 244.949 37.6719 245.069 36.9815L245.401 34.8977C245.23 35.0085 244.983 35.1065 244.659 35.1918C244.344 35.277 243.999 35.358 243.624 35.4347C243.257 35.5028 242.887 35.5668 242.512 35.6264C242.137 35.6776 241.8 35.7287 241.502 35.7798C240.846 35.8736 240.257 36.0227 239.738 36.2273C239.218 36.4318 238.796 36.7088 238.472 37.0582C238.148 37.3991 237.948 37.8253 237.871 38.3366C237.752 39.0781 237.926 39.6449 238.395 40.0369C238.873 40.4205 239.533 40.6122 240.377 40.6122ZM269.224 32.0085L268.508 36.2912H258.255L258.958 32.0085H269.224ZM262.027 24.3636L258.754 44H253.564L256.836 24.3636H262.027ZM273.903 24.3636L270.63 44H265.466L268.738 24.3636H273.903ZM275.45 28.6463L276.166 24.3636H293.961L293.245 28.6463H286.93L284.386 44H279.183L281.74 28.6463H275.45Z" fill="#132424"/>
<mask id="path-2-outside-1_75_2936" maskUnits="userSpaceOnUse" x="0" y="8" width="35" height="41" fill="black">
<rect fill="white" y="8" width="35" height="41"/>
<path d="M28.0909 22C27.7159 20.8523 27.2216 19.8239 26.608 18.9148C26.0057 17.9943 25.2841 17.2102 24.4432 16.5625C23.6136 15.9148 22.6705 15.4205 21.6136 15.0795C20.5568 14.7386 19.3977 14.5682 18.1364 14.5682C16.0682 14.5682 14.1875 15.1023 12.4943 16.1705C10.8011 17.2386 9.45455 18.8125 8.45455 20.892C7.45455 22.9716 6.95455 25.5227 6.95455 28.5455C6.95455 31.5682 7.46023 34.1193 8.47159 36.1989C9.48295 38.2784 10.8523 39.8523 12.5795 40.9205C14.3068 41.9886 16.25 42.5227 18.4091 42.5227C20.4091 42.5227 22.1705 42.0966 23.6932 41.2443C25.2273 40.3807 26.4205 39.1648 27.2727 37.5966C28.1364 36.017 28.5682 34.1591 28.5682 32.0227L29.8636 32.2955H19.3636V28.5455H32.6591V32.2955C32.6591 35.1705 32.0455 37.6705 30.8182 39.7955C29.6023 41.9205 27.9205 43.5682 25.7727 44.7386C23.6364 45.8977 21.1818 46.4773 18.4091 46.4773C15.3182 46.4773 12.6023 45.75 10.2614 44.2955C7.93182 42.8409 6.11364 40.7727 4.80682 38.0909C3.51136 35.4091 2.86364 32.2273 2.86364 28.5455C2.86364 25.7841 3.23295 23.3011 3.97159 21.0966C4.72159 18.8807 5.77841 16.9943 7.14205 15.4375C8.50568 13.8807 10.1193 12.6875 11.983 11.858C13.8466 11.0284 15.8977 10.6136 18.1364 10.6136C19.9773 10.6136 21.6932 10.892 23.2841 11.4489C24.8864 11.9943 26.3125 12.7727 27.5625 13.7841C28.8239 14.7841 29.875 15.983 30.7159 17.3807C31.5568 18.767 32.1364 20.3068 32.4545 22H28.0909Z"/>
</mask>
<path d="M28.0909 22C27.7159 20.8523 27.2216 19.8239 26.608 18.9148C26.0057 17.9943 25.2841 17.2102 24.4432 16.5625C23.6136 15.9148 22.6705 15.4205 21.6136 15.0795C20.5568 14.7386 19.3977 14.5682 18.1364 14.5682C16.0682 14.5682 14.1875 15.1023 12.4943 16.1705C10.8011 17.2386 9.45455 18.8125 8.45455 20.892C7.45455 22.9716 6.95455 25.5227 6.95455 28.5455C6.95455 31.5682 7.46023 34.1193 8.47159 36.1989C9.48295 38.2784 10.8523 39.8523 12.5795 40.9205C14.3068 41.9886 16.25 42.5227 18.4091 42.5227C20.4091 42.5227 22.1705 42.0966 23.6932 41.2443C25.2273 40.3807 26.4205 39.1648 27.2727 37.5966C28.1364 36.017 28.5682 34.1591 28.5682 32.0227L29.8636 32.2955H19.3636V28.5455H32.6591V32.2955C32.6591 35.1705 32.0455 37.6705 30.8182 39.7955C29.6023 41.9205 27.9205 43.5682 25.7727 44.7386C23.6364 45.8977 21.1818 46.4773 18.4091 46.4773C15.3182 46.4773 12.6023 45.75 10.2614 44.2955C7.93182 42.8409 6.11364 40.7727 4.80682 38.0909C3.51136 35.4091 2.86364 32.2273 2.86364 28.5455C2.86364 25.7841 3.23295 23.3011 3.97159 21.0966C4.72159 18.8807 5.77841 16.9943 7.14205 15.4375C8.50568 13.8807 10.1193 12.6875 11.983 11.858C13.8466 11.0284 15.8977 10.6136 18.1364 10.6136C19.9773 10.6136 21.6932 10.892 23.2841 11.4489C24.8864 11.9943 26.3125 12.7727 27.5625 13.7841C28.8239 14.7841 29.875 15.983 30.7159 17.3807C31.5568 18.767 32.1364 20.3068 32.4545 22H28.0909Z" fill="#5FE6E6"/>
<path d="M28.0909 22L26.1898 22.6212L26.6403 24H28.0909V22ZM26.608 18.9148L24.9344 20.0098L24.9422 20.0218L24.9503 20.0337L26.608 18.9148ZM24.4432 16.5625L23.2123 18.1389L23.2227 18.147L24.4432 16.5625ZM21.6136 15.0795L22.2276 13.1761L22.2276 13.1761L21.6136 15.0795ZM8.45455 20.892L10.257 21.7588L8.45455 20.892ZM8.47159 36.1989L6.67302 37.0736L8.47159 36.1989ZM23.6932 41.2443L24.67 42.9896L24.6743 42.9871L23.6932 41.2443ZM27.2727 37.5966L25.5179 36.6371L25.5155 36.6416L27.2727 37.5966ZM28.5682 32.0227L28.9802 30.0656L26.5682 29.5578V32.0227H28.5682ZM29.8636 32.2955V34.2955L30.2757 30.3384L29.8636 32.2955ZM19.3636 32.2955H17.3636V34.2955H19.3636V32.2955ZM19.3636 28.5455V26.5455H17.3636V28.5455H19.3636ZM32.6591 28.5455H34.6591V26.5455H32.6591V28.5455ZM30.8182 39.7955L29.0863 38.7952L29.0823 38.8022L30.8182 39.7955ZM25.7727 44.7386L26.7265 46.4966L26.7298 46.4948L25.7727 44.7386ZM10.2614 44.2955L9.20211 45.9919L9.20582 45.9942L10.2614 44.2955ZM4.80682 38.0909L3.00591 38.9608L3.00892 38.967L4.80682 38.0909ZM3.97159 21.0966L2.07715 20.4554L2.0752 20.4612L3.97159 21.0966ZM7.14205 15.4375L8.64652 16.7553L7.14205 15.4375ZM23.2841 11.4489L22.6234 13.3366L22.6315 13.3394L22.6396 13.3422L23.2841 11.4489ZM27.5625 13.7841L26.3045 15.3389L26.3122 15.3452L26.32 15.3513L27.5625 13.7841ZM30.7159 17.3807L29.0021 18.4117L29.0059 18.4179L30.7159 17.3807ZM32.4545 22V24H34.8654L34.4201 21.6306L32.4545 22ZM29.992 21.3788C29.5651 20.0723 28.993 18.8734 28.2656 17.7958L24.9503 20.0337C25.4502 20.7743 25.8667 21.6322 26.1898 22.6212L29.992 21.3788ZM28.2815 17.8197C27.5612 16.7188 26.6883 15.7673 25.6636 14.978L23.2227 18.147C23.8799 18.6531 24.4502 19.2698 24.9344 20.0098L28.2815 17.8197ZM25.6741 14.9861C24.6496 14.1862 23.4953 13.585 22.2276 13.1761L20.9996 16.983C21.8457 17.2559 22.5776 17.6433 23.2123 18.1389L25.6741 14.9861ZM22.2276 13.1761C20.9475 12.7632 19.5783 12.5682 18.1364 12.5682V16.5682C19.2172 16.5682 20.1661 16.7141 20.9996 16.983L22.2276 13.1761ZM18.1364 12.5682C15.7036 12.5682 13.4508 13.2023 11.4272 14.4789L13.5615 17.862C14.9242 17.0022 16.4327 16.5682 18.1364 16.5682V12.5682ZM11.4272 14.4789C9.3702 15.7766 7.78954 17.66 6.65211 20.0253L10.257 21.7588C11.1196 19.965 12.2321 18.7006 13.5615 17.862L11.4272 14.4789ZM6.65212 20.0253C5.48826 22.4456 4.95455 25.3119 4.95455 28.5455H8.95455C8.95455 25.7336 9.42083 23.4976 10.257 21.7588L6.65212 20.0253ZM4.95455 28.5455C4.95455 31.7818 5.49487 34.6511 6.67302 37.0736L10.2702 35.3241C9.42558 33.5875 8.95455 31.3545 8.95455 28.5455H4.95455ZM6.67302 37.0736C7.82646 39.4453 9.43532 41.3275 11.5276 42.6215L13.6315 39.2194C12.2692 38.377 11.1395 37.1116 10.2702 35.3241L6.67302 37.0736ZM11.5276 42.6215C13.5911 43.8976 15.9029 44.5227 18.4091 44.5227V40.5227C16.5971 40.5227 15.0225 40.0797 13.6315 39.2194L11.5276 42.6215ZM18.4091 44.5227C20.7005 44.5227 22.8076 44.032 24.67 42.9896L22.7164 39.4991C21.5334 40.1612 20.1177 40.5227 18.4091 40.5227V44.5227ZM24.6743 42.9871C26.5408 41.9364 28.0008 40.4453 29.03 38.5516L25.5155 36.6416C24.8401 37.8843 23.9138 38.825 22.712 39.5015L24.6743 42.9871ZM29.0276 38.5561C30.0796 36.6319 30.5682 34.4318 30.5682 32.0227H26.5682C26.5682 33.8864 26.1931 35.4022 25.5179 36.6371L29.0276 38.5561ZM28.1562 33.9798L29.4516 34.2526L30.2757 30.3384L28.9802 30.0656L28.1562 33.9798ZM29.8636 30.2955H19.3636V34.2955H29.8636V30.2955ZM21.3636 32.2955V28.5455H17.3636V32.2955H21.3636ZM19.3636 30.5455H32.6591V26.5455H19.3636V30.5455ZM30.6591 28.5455V32.2955H34.6591V28.5455H30.6591ZM30.6591 32.2955C30.6591 34.88 30.1098 37.0229 29.0863 38.7952L32.5501 40.7957C33.9811 38.318 34.6591 35.4609 34.6591 32.2955H30.6591ZM29.0823 38.8022C28.0501 40.606 26.6378 41.9895 24.8157 42.9825L26.7298 46.4948C29.2031 45.1469 31.1544 43.2349 32.5541 40.7887L29.0823 38.8022ZM24.819 42.9807C23.0144 43.9598 20.8961 44.4773 18.4091 44.4773V48.4773C21.4675 48.4773 24.2583 47.8357 26.7265 46.4966L24.819 42.9807ZM18.4091 44.4773C15.6446 44.4773 13.3036 43.8311 11.3169 42.5967L9.20582 45.9942C11.901 47.6689 14.9917 48.4773 18.4091 48.4773V44.4773ZM11.3206 42.599C9.33673 41.3603 7.76189 39.5895 6.60472 37.2148L3.00892 38.967C4.46539 41.9559 6.5269 44.3215 9.20211 45.9919L11.3206 42.599ZM6.60772 37.221C5.47054 34.8668 4.86364 31.9956 4.86364 28.5455H0.863636C0.863636 32.4589 1.55219 35.9513 3.00592 38.9608L6.60772 37.221ZM4.86364 28.5455C4.86364 25.9607 5.20946 23.6974 5.86798 21.732L2.0752 20.4612C1.25645 22.9049 0.863636 25.6075 0.863636 28.5455H4.86364ZM5.86602 21.7378C6.5427 19.7385 7.47722 18.0902 8.64652 16.7553L5.63757 14.1197C4.0796 15.8984 2.90048 18.0229 2.07716 20.4554L5.86602 21.7378ZM8.64652 16.7553C9.82222 15.413 11.2011 14.3952 12.7963 13.6851L11.1696 10.0308C9.03752 10.9798 7.18914 12.3483 5.63757 14.1197L8.64652 16.7553ZM12.7963 13.6851C14.3799 12.9802 16.1504 12.6136 18.1364 12.6136V8.61364C15.645 8.61364 13.3133 9.0766 11.1696 10.0308L12.7963 13.6851ZM18.1364 12.6136C19.773 12.6136 21.2635 12.8606 22.6234 13.3366L23.9448 9.56115C22.1228 8.92346 20.1816 8.61364 18.1364 8.61364V12.6136ZM22.6396 13.3422C24.0309 13.8158 25.247 14.4833 26.3045 15.3389L28.8205 12.2293C27.378 11.0622 25.7418 10.1728 23.9286 9.55556L22.6396 13.3422ZM26.32 15.3513C27.3909 16.2003 28.2832 17.2167 29.0022 18.4117L32.4297 16.3496C31.4668 14.7492 30.2569 13.3679 28.805 12.2169L26.32 15.3513ZM29.0059 18.4179C29.7146 19.5862 30.2124 20.8975 30.489 22.3694L34.4201 21.6306C34.0604 19.7162 33.3991 17.9478 32.4259 16.3435L29.0059 18.4179ZM32.4545 20H28.0909V24H32.4545V20Z" fill="#3A3E43" mask="url(#path-2-outside-1_75_2936)"/>
<mask id="path-4-outside-2_75_2936" maskUnits="userSpaceOnUse" x="34" y="9" width="33" height="39" fill="black">
<rect fill="white" x="34" y="9" width="33" height="39"/>
<path d="M36.2273 46V11.0909H40.4545V28.4091H40.8636L56.5455 11.0909H62.0682L47.4091 26.8409L62.0682 46H56.9545L44.8182 29.7727L40.4545 34.6818V46H36.2273Z"/>
</mask>
<path d="M36.2273 46V11.0909H40.4545V28.4091H40.8636L56.5455 11.0909H62.0682L47.4091 26.8409L62.0682 46H56.9545L44.8182 29.7727L40.4545 34.6818V46H36.2273Z" fill="#5FE6E6"/>
<path d="M36.2273 46H34.2273V48H36.2273V46ZM36.2273 11.0909V9.09091H34.2273V11.0909H36.2273ZM40.4545 11.0909H42.4545V9.09091H40.4545V11.0909ZM40.4545 28.4091H38.4545V30.4091H40.4545V28.4091ZM40.8636 28.4091V30.4091H41.7507L42.3462 29.7515L40.8636 28.4091ZM56.5455 11.0909V9.09091H55.6584L55.0629 9.74847L56.5455 11.0909ZM62.0682 11.0909L63.5322 12.4535L66.6619 9.09091H62.0682V11.0909ZM47.4091 26.8409L45.9451 25.4783L44.7943 26.7147L45.8207 28.0562L47.4091 26.8409ZM62.0682 46V48H66.1167L63.6566 44.7847L62.0682 46ZM56.9545 46L55.3529 47.1978L55.9529 48H56.9545V46ZM44.8182 29.7727L46.4198 28.5749L44.9518 26.612L43.3234 28.444L44.8182 29.7727ZM40.4545 34.6818L38.9597 33.3531L38.4545 33.9214V34.6818H40.4545ZM40.4545 46V48H42.4545V46H40.4545ZM38.2273 46V11.0909H34.2273V46H38.2273ZM36.2273 13.0909H40.4545V9.09091H36.2273V13.0909ZM38.4545 11.0909V28.4091H42.4545V11.0909H38.4545ZM40.4545 30.4091H40.8636V26.4091H40.4545V30.4091ZM42.3462 29.7515L58.028 12.4333L55.0629 9.74847L39.3811 27.0667L42.3462 29.7515ZM56.5455 13.0909H62.0682V9.09091H56.5455V13.0909ZM60.6042 9.7283L45.9451 25.4783L48.8731 28.2035L63.5322 12.4535L60.6042 9.7283ZM45.8207 28.0562L60.4798 47.2153L63.6566 44.7847L48.9975 25.6256L45.8207 28.0562ZM62.0682 44H56.9545V48H62.0682V44ZM58.5562 44.8022L46.4198 28.5749L43.2166 30.9706L55.3529 47.1978L58.5562 44.8022ZM43.3234 28.444L38.9597 33.3531L41.9494 36.0105L46.313 31.1015L43.3234 28.444ZM38.4545 34.6818V46H42.4545V34.6818H38.4545ZM40.4545 44H36.2273V48H40.4545V44Z" fill="#3A3E43" mask="url(#path-4-outside-2_75_2936)"/>
</svg>
