<svg width="24" height="22" viewBox="0 0 24 22" fill="none" xmlns="http://www.w3.org/2000/svg">
<path fill-rule="evenodd" clip-rule="evenodd" d="M1.9381 22C1.9381 22 0 22 0 20.1667C0 18.3333 1.9381 12.8333 11.6286 12.8333C21.319 12.8333 23.2571 18.3333 23.2571 20.1667C23.2571 22 21.319 22 21.319 22H1.9381ZM11.6286 11C13.1706 11 14.6495 10.4205 15.7399 9.38909C16.8303 8.35764 17.4429 6.95869 17.4429 5.5C17.4429 4.04131 16.8303 2.64236 15.7399 1.61091C14.6495 0.579463 13.1706 0 11.6286 0C10.0865 0 8.60764 0.579463 7.51725 1.61091C6.42686 2.64236 5.81429 4.04131 5.81429 5.5C5.81429 6.95869 6.42686 8.35764 7.51725 9.38909C8.60764 10.4205 10.0865 11 11.6286 11Z" fill="#49A8A8"/>
</svg>
