<svg width="297" height="58" viewBox="0 0 297 58" fill="none" xmlns="http://www.w3.org/2000/svg">
<mask id="path-1-outside-1_101_2936" maskUnits="userSpaceOnUse" x="0" y="8" width="35" height="41" fill="black">
<rect fill="white" y="8" width="35" height="41"/>
<path d="M28.0909 22C27.7159 20.8523 27.2216 19.8239 26.608 18.9148C26.0057 17.9943 25.2841 17.2102 24.4432 16.5625C23.6136 15.9148 22.6705 15.4205 21.6136 15.0795C20.5568 14.7386 19.3977 14.5682 18.1364 14.5682C16.0682 14.5682 14.1875 15.1023 12.4943 16.1705C10.8011 17.2386 9.45455 18.8125 8.45455 20.892C7.45455 22.9716 6.95455 25.5227 6.95455 28.5455C6.95455 31.5682 7.46023 34.1193 8.47159 36.1989C9.48295 38.2784 10.8523 39.8523 12.5795 40.9205C14.3068 41.9886 16.25 42.5227 18.4091 42.5227C20.4091 42.5227 22.1705 42.0966 23.6932 41.2443C25.2273 40.3807 26.4205 39.1648 27.2727 37.5966C28.1364 36.017 28.5682 34.1591 28.5682 32.0227L29.8636 32.2955H19.3636V28.5455H32.6591V32.2955C32.6591 35.1705 32.0455 37.6705 30.8182 39.7955C29.6023 41.9205 27.9205 43.5682 25.7727 44.7386C23.6364 45.8977 21.1818 46.4773 18.4091 46.4773C15.3182 46.4773 12.6023 45.75 10.2614 44.2955C7.93182 42.8409 6.11364 40.7727 4.80682 38.0909C3.51136 35.4091 2.86364 32.2273 2.86364 28.5455C2.86364 25.7841 3.23295 23.3011 3.97159 21.0966C4.72159 18.8807 5.77841 16.9943 7.14205 15.4375C8.50568 13.8807 10.1193 12.6875 11.983 11.858C13.8466 11.0284 15.8977 10.6136 18.1364 10.6136C19.9773 10.6136 21.6932 10.892 23.2841 11.4489C24.8864 11.9943 26.3125 12.7727 27.5625 13.7841C28.8239 14.7841 29.875 15.983 30.7159 17.3807C31.5568 18.767 32.1364 20.3068 32.4545 22H28.0909Z"/>
</mask>
<path d="M28.0909 22C27.7159 20.8523 27.2216 19.8239 26.608 18.9148C26.0057 17.9943 25.2841 17.2102 24.4432 16.5625C23.6136 15.9148 22.6705 15.4205 21.6136 15.0795C20.5568 14.7386 19.3977 14.5682 18.1364 14.5682C16.0682 14.5682 14.1875 15.1023 12.4943 16.1705C10.8011 17.2386 9.45455 18.8125 8.45455 20.892C7.45455 22.9716 6.95455 25.5227 6.95455 28.5455C6.95455 31.5682 7.46023 34.1193 8.47159 36.1989C9.48295 38.2784 10.8523 39.8523 12.5795 40.9205C14.3068 41.9886 16.25 42.5227 18.4091 42.5227C20.4091 42.5227 22.1705 42.0966 23.6932 41.2443C25.2273 40.3807 26.4205 39.1648 27.2727 37.5966C28.1364 36.017 28.5682 34.1591 28.5682 32.0227L29.8636 32.2955H19.3636V28.5455H32.6591V32.2955C32.6591 35.1705 32.0455 37.6705 30.8182 39.7955C29.6023 41.9205 27.9205 43.5682 25.7727 44.7386C23.6364 45.8977 21.1818 46.4773 18.4091 46.4773C15.3182 46.4773 12.6023 45.75 10.2614 44.2955C7.93182 42.8409 6.11364 40.7727 4.80682 38.0909C3.51136 35.4091 2.86364 32.2273 2.86364 28.5455C2.86364 25.7841 3.23295 23.3011 3.97159 21.0966C4.72159 18.8807 5.77841 16.9943 7.14205 15.4375C8.50568 13.8807 10.1193 12.6875 11.983 11.858C13.8466 11.0284 15.8977 10.6136 18.1364 10.6136C19.9773 10.6136 21.6932 10.892 23.2841 11.4489C24.8864 11.9943 26.3125 12.7727 27.5625 13.7841C28.8239 14.7841 29.875 15.983 30.7159 17.3807C31.5568 18.767 32.1364 20.3068 32.4545 22H28.0909Z" fill="#1FE4E4"/>
<path d="M28.0909 22L26.1898 22.6212L26.6403 24H28.0909V22ZM26.608 18.9148L24.9344 20.0098L24.9422 20.0218L24.9503 20.0337L26.608 18.9148ZM24.4432 16.5625L23.2123 18.1389L23.2227 18.147L24.4432 16.5625ZM21.6136 15.0795L22.2276 13.1761L22.2276 13.1761L21.6136 15.0795ZM8.45455 20.892L10.257 21.7588L8.45455 20.892ZM8.47159 36.1989L6.67302 37.0736L8.47159 36.1989ZM23.6932 41.2443L24.67 42.9896L24.6743 42.9871L23.6932 41.2443ZM27.2727 37.5966L25.5179 36.6371L25.5155 36.6416L27.2727 37.5966ZM28.5682 32.0227L28.9802 30.0656L26.5682 29.5578V32.0227H28.5682ZM29.8636 32.2955V34.2955L30.2757 30.3384L29.8636 32.2955ZM19.3636 32.2955H17.3636V34.2955H19.3636V32.2955ZM19.3636 28.5455V26.5455H17.3636V28.5455H19.3636ZM32.6591 28.5455H34.6591V26.5455H32.6591V28.5455ZM30.8182 39.7955L29.0863 38.7952L29.0823 38.8022L30.8182 39.7955ZM25.7727 44.7386L26.7265 46.4966L26.7298 46.4948L25.7727 44.7386ZM10.2614 44.2955L9.20211 45.9919L9.20582 45.9942L10.2614 44.2955ZM4.80682 38.0909L3.00591 38.9608L3.00892 38.967L4.80682 38.0909ZM3.97159 21.0966L2.07715 20.4554L2.0752 20.4612L3.97159 21.0966ZM7.14205 15.4375L8.64652 16.7553L7.14205 15.4375ZM23.2841 11.4489L22.6234 13.3366L22.6315 13.3394L22.6396 13.3422L23.2841 11.4489ZM27.5625 13.7841L26.3045 15.3389L26.3122 15.3452L26.32 15.3513L27.5625 13.7841ZM30.7159 17.3807L29.0021 18.4117L29.0059 18.4179L30.7159 17.3807ZM32.4545 22V24H34.8654L34.4201 21.6306L32.4545 22ZM29.992 21.3788C29.5651 20.0723 28.993 18.8734 28.2656 17.7958L24.9503 20.0337C25.4502 20.7743 25.8667 21.6322 26.1898 22.6212L29.992 21.3788ZM28.2815 17.8197C27.5612 16.7188 26.6883 15.7673 25.6636 14.978L23.2227 18.147C23.8799 18.6531 24.4502 19.2698 24.9344 20.0098L28.2815 17.8197ZM25.6741 14.9861C24.6496 14.1862 23.4953 13.585 22.2276 13.1761L20.9996 16.983C21.8457 17.2559 22.5776 17.6433 23.2123 18.1389L25.6741 14.9861ZM22.2276 13.1761C20.9475 12.7632 19.5783 12.5682 18.1364 12.5682V16.5682C19.2172 16.5682 20.1661 16.7141 20.9996 16.983L22.2276 13.1761ZM18.1364 12.5682C15.7036 12.5682 13.4508 13.2023 11.4272 14.4789L13.5615 17.862C14.9242 17.0022 16.4327 16.5682 18.1364 16.5682V12.5682ZM11.4272 14.4789C9.3702 15.7766 7.78954 17.66 6.65211 20.0253L10.257 21.7588C11.1196 19.965 12.2321 18.7006 13.5615 17.862L11.4272 14.4789ZM6.65212 20.0253C5.48826 22.4456 4.95455 25.3119 4.95455 28.5455H8.95455C8.95455 25.7336 9.42083 23.4976 10.257 21.7588L6.65212 20.0253ZM4.95455 28.5455C4.95455 31.7818 5.49487 34.6511 6.67302 37.0736L10.2702 35.3241C9.42558 33.5875 8.95455 31.3545 8.95455 28.5455H4.95455ZM6.67302 37.0736C7.82646 39.4453 9.43532 41.3275 11.5276 42.6215L13.6315 39.2194C12.2692 38.377 11.1395 37.1116 10.2702 35.3241L6.67302 37.0736ZM11.5276 42.6215C13.5911 43.8976 15.9029 44.5227 18.4091 44.5227V40.5227C16.5971 40.5227 15.0225 40.0797 13.6315 39.2194L11.5276 42.6215ZM18.4091 44.5227C20.7005 44.5227 22.8076 44.032 24.67 42.9896L22.7164 39.4991C21.5334 40.1612 20.1177 40.5227 18.4091 40.5227V44.5227ZM24.6743 42.9871C26.5408 41.9364 28.0008 40.4453 29.03 38.5516L25.5155 36.6416C24.8401 37.8843 23.9138 38.825 22.712 39.5015L24.6743 42.9871ZM29.0276 38.5561C30.0796 36.6319 30.5682 34.4318 30.5682 32.0227H26.5682C26.5682 33.8864 26.1931 35.4022 25.5179 36.6371L29.0276 38.5561ZM28.1562 33.9798L29.4516 34.2526L30.2757 30.3384L28.9802 30.0656L28.1562 33.9798ZM29.8636 30.2955H19.3636V34.2955H29.8636V30.2955ZM21.3636 32.2955V28.5455H17.3636V32.2955H21.3636ZM19.3636 30.5455H32.6591V26.5455H19.3636V30.5455ZM30.6591 28.5455V32.2955H34.6591V28.5455H30.6591ZM30.6591 32.2955C30.6591 34.88 30.1098 37.0229 29.0863 38.7952L32.5501 40.7957C33.9811 38.318 34.6591 35.4609 34.6591 32.2955H30.6591ZM29.0823 38.8022C28.0501 40.606 26.6378 41.9895 24.8157 42.9825L26.7298 46.4948C29.2031 45.1469 31.1544 43.2349 32.5541 40.7887L29.0823 38.8022ZM24.819 42.9807C23.0144 43.9598 20.8961 44.4773 18.4091 44.4773V48.4773C21.4675 48.4773 24.2583 47.8357 26.7265 46.4966L24.819 42.9807ZM18.4091 44.4773C15.6446 44.4773 13.3036 43.8311 11.3169 42.5967L9.20582 45.9942C11.901 47.6689 14.9917 48.4773 18.4091 48.4773V44.4773ZM11.3206 42.599C9.33673 41.3603 7.76189 39.5895 6.60472 37.2148L3.00892 38.967C4.46539 41.9559 6.5269 44.3215 9.20211 45.9919L11.3206 42.599ZM6.60772 37.221C5.47054 34.8668 4.86364 31.9956 4.86364 28.5455H0.863636C0.863636 32.4589 1.55219 35.9513 3.00592 38.9608L6.60772 37.221ZM4.86364 28.5455C4.86364 25.9607 5.20946 23.6974 5.86798 21.732L2.0752 20.4612C1.25645 22.9049 0.863636 25.6075 0.863636 28.5455H4.86364ZM5.86602 21.7378C6.5427 19.7385 7.47722 18.0902 8.64652 16.7553L5.63757 14.1197C4.0796 15.8984 2.90048 18.0229 2.07716 20.4554L5.86602 21.7378ZM8.64652 16.7553C9.82222 15.413 11.2011 14.3952 12.7963 13.6851L11.1696 10.0308C9.03752 10.9798 7.18914 12.3483 5.63757 14.1197L8.64652 16.7553ZM12.7963 13.6851C14.3799 12.9802 16.1504 12.6136 18.1364 12.6136V8.61364C15.645 8.61364 13.3133 9.0766 11.1696 10.0308L12.7963 13.6851ZM18.1364 12.6136C19.773 12.6136 21.2635 12.8606 22.6234 13.3366L23.9448 9.56115C22.1228 8.92346 20.1816 8.61364 18.1364 8.61364V12.6136ZM22.6396 13.3422C24.0309 13.8158 25.247 14.4833 26.3045 15.3389L28.8205 12.2293C27.378 11.0622 25.7418 10.1728 23.9286 9.55556L22.6396 13.3422ZM26.32 15.3513C27.3909 16.2003 28.2832 17.2167 29.0022 18.4117L32.4297 16.3496C31.4668 14.7492 30.2569 13.3679 28.805 12.2169L26.32 15.3513ZM29.0059 18.4179C29.7146 19.5862 30.2124 20.8975 30.489 22.3694L34.4201 21.6306C34.0604 19.7162 33.3991 17.9478 32.4259 16.3435L29.0059 18.4179ZM32.4545 20H28.0909V24H32.4545V20Z" fill="#8490A4" mask="url(#path-1-outside-1_101_2936)"/>
<mask id="path-3-outside-2_101_2936" maskUnits="userSpaceOnUse" x="34" y="9" width="33" height="39" fill="black">
<rect fill="white" x="34" y="9" width="33" height="39"/>
<path d="M36.2273 46V11.0909H40.4545V28.4091H40.8636L56.5455 11.0909H62.0682L47.4091 26.8409L62.0682 46H56.9545L44.8182 29.7727L40.4545 34.6818V46H36.2273Z"/>
</mask>
<path d="M36.2273 46V11.0909H40.4545V28.4091H40.8636L56.5455 11.0909H62.0682L47.4091 26.8409L62.0682 46H56.9545L44.8182 29.7727L40.4545 34.6818V46H36.2273Z" fill="#1FE4E4"/>
<path d="M36.2273 46H34.2273V48H36.2273V46ZM36.2273 11.0909V9.09091H34.2273V11.0909H36.2273ZM40.4545 11.0909H42.4545V9.09091H40.4545V11.0909ZM40.4545 28.4091H38.4545V30.4091H40.4545V28.4091ZM40.8636 28.4091V30.4091H41.7507L42.3462 29.7515L40.8636 28.4091ZM56.5455 11.0909V9.09091H55.6584L55.0629 9.74847L56.5455 11.0909ZM62.0682 11.0909L63.5322 12.4535L66.6619 9.09091H62.0682V11.0909ZM47.4091 26.8409L45.9451 25.4783L44.7943 26.7147L45.8207 28.0562L47.4091 26.8409ZM62.0682 46V48H66.1167L63.6566 44.7847L62.0682 46ZM56.9545 46L55.3529 47.1978L55.9529 48H56.9545V46ZM44.8182 29.7727L46.4198 28.5749L44.9518 26.612L43.3234 28.444L44.8182 29.7727ZM40.4545 34.6818L38.9597 33.3531L38.4545 33.9214V34.6818H40.4545ZM40.4545 46V48H42.4545V46H40.4545ZM38.2273 46V11.0909H34.2273V46H38.2273ZM36.2273 13.0909H40.4545V9.09091H36.2273V13.0909ZM38.4545 11.0909V28.4091H42.4545V11.0909H38.4545ZM40.4545 30.4091H40.8636V26.4091H40.4545V30.4091ZM42.3462 29.7515L58.028 12.4333L55.0629 9.74847L39.3811 27.0667L42.3462 29.7515ZM56.5455 13.0909H62.0682V9.09091H56.5455V13.0909ZM60.6042 9.7283L45.9451 25.4783L48.8731 28.2035L63.5322 12.4535L60.6042 9.7283ZM45.8207 28.0562L60.4798 47.2153L63.6566 44.7847L48.9975 25.6256L45.8207 28.0562ZM62.0682 44H56.9545V48H62.0682V44ZM58.5562 44.8022L46.4198 28.5749L43.2166 30.9706L55.3529 47.1978L58.5562 44.8022ZM43.3234 28.444L38.9597 33.3531L41.9494 36.0105L46.313 31.1015L43.3234 28.444ZM38.4545 34.6818V46H42.4545V34.6818H38.4545ZM40.4545 44H36.2273V48H40.4545V44Z" fill="#8490A4" mask="url(#path-3-outside-2_101_2936)"/>
<path d="M104.359 15.8182L103.592 20.3821H91.7543L88.1747 42H82.6392L86.9858 15.8182H104.359ZM107.846 34.8153L116.987 22.3636H122.369L119.096 42H113.893L115.977 29.5099L106.849 42H101.454L104.727 22.3636H109.917L107.846 34.8153ZM123.497 42L126.77 22.3636H143.926L140.653 42H135.463L138.033 26.6463H131.193L128.624 42H123.497ZM153.907 42.3835C151.896 42.3835 150.23 41.9744 148.909 41.1562C147.588 40.3295 146.659 39.1619 146.122 37.6534C145.593 36.1364 145.504 34.3423 145.853 32.2713C146.194 30.2514 146.88 28.4787 147.912 26.9531C148.951 25.4276 150.255 24.2386 151.824 23.3864C153.392 22.5341 155.139 22.108 157.065 22.108C158.36 22.108 159.532 22.3168 160.581 22.7344C161.637 23.1435 162.515 23.7656 163.214 24.6009C163.913 25.4276 164.39 26.4631 164.646 27.7074C164.91 28.9517 164.906 30.4091 164.633 32.0795L164.39 33.5753H147.822L148.346 30.2003H159.801C159.929 29.4162 159.877 28.7216 159.647 28.1165C159.417 27.5114 159.034 27.0384 158.497 26.6974C157.96 26.348 157.299 26.1733 156.515 26.1733C155.714 26.1733 154.964 26.3693 154.265 26.7614C153.566 27.1534 152.978 27.669 152.501 28.3082C152.032 28.9389 151.73 29.625 151.593 30.3665L150.993 33.7159C150.822 34.7472 150.856 35.6037 151.095 36.2855C151.342 36.9673 151.768 37.4787 152.373 37.8196C152.978 38.152 153.745 38.3182 154.674 38.3182C155.279 38.3182 155.846 38.233 156.375 38.0625C156.912 37.892 157.389 37.6406 157.806 37.3082C158.224 36.9673 158.565 36.5455 158.829 36.0426L163.802 36.375C163.342 37.5852 162.643 38.642 161.706 39.5455C160.768 40.4403 159.639 41.1392 158.318 41.642C157.005 42.1364 155.535 42.3835 153.907 42.3835ZM165.371 49.3636L169.897 22.3636H175.266L174.717 25.6619H174.96C175.283 25.1335 175.714 24.5966 176.251 24.0511C176.796 23.4972 177.474 23.0369 178.283 22.6705C179.093 22.2955 180.043 22.108 181.134 22.108C182.575 22.108 183.832 22.483 184.906 23.233C185.979 23.9744 186.755 25.0952 187.232 26.5952C187.718 28.0866 187.773 29.9574 187.398 32.2074C187.04 34.3977 186.38 36.2472 185.417 37.7557C184.462 39.2557 183.316 40.3935 181.978 41.169C180.648 41.9361 179.238 42.3196 177.746 42.3196C176.69 42.3196 175.82 42.1449 175.138 41.7955C174.465 41.446 173.941 41.0071 173.566 40.4787C173.191 39.9418 172.927 39.4006 172.773 38.8551H172.569L170.83 49.3636H165.371ZM173.592 32.1818C173.404 33.3494 173.396 34.3679 173.566 35.2372C173.745 36.1065 174.103 36.7841 174.64 37.2699C175.177 37.7472 175.884 37.9858 176.762 37.9858C177.648 37.9858 178.437 37.7429 179.127 37.2571C179.817 36.7628 180.393 36.081 180.853 35.2116C181.313 34.3338 181.641 33.3239 181.837 32.1818C182.016 31.0483 182.021 30.0511 181.85 29.1903C181.68 28.3295 181.33 27.6562 180.802 27.1705C180.273 26.6847 179.558 26.4418 178.654 26.4418C177.776 26.4418 176.988 26.6761 176.289 27.1449C175.599 27.6136 175.023 28.2784 174.563 29.1392C174.103 30 173.779 31.0142 173.592 32.1818ZM205.319 42L198.76 30.8395H196.868L195.015 42H189.479L193.826 15.8182H199.361L197.623 26.2756H198.735L209.167 15.8182H216.057L203.836 27.9631L212.184 42H205.319ZM214.903 42L218.176 22.3636H226.537C228.949 22.3636 230.781 22.8239 232.034 23.7443C233.295 24.6648 233.781 25.973 233.491 27.669C233.321 28.7344 232.78 29.6207 231.868 30.3281C230.956 31.0355 229.78 31.5128 228.339 31.7599C229.507 31.8452 230.466 32.1136 231.216 32.5653C231.974 33.0085 232.511 33.5838 232.827 34.2912C233.151 34.9986 233.244 35.7827 233.108 36.6435C232.92 37.7599 232.46 38.7187 231.727 39.5199C231.003 40.321 230.036 40.9347 228.825 41.3608C227.624 41.7869 226.2 42 224.555 42H214.903ZM220.643 37.9219H225.233C226 37.9219 226.631 37.7386 227.125 37.3722C227.619 37.0057 227.913 36.5114 228.007 35.8892C228.135 35.1903 228.011 34.6406 227.636 34.2401C227.27 33.8395 226.707 33.6392 225.949 33.6392H221.359L220.643 37.9219ZM221.896 30.4432H225.31C225.847 30.4432 226.324 30.3665 226.741 30.2131C227.159 30.0511 227.496 29.821 227.751 29.5227C228.016 29.2244 228.182 28.8707 228.25 28.4616C228.352 27.8651 228.186 27.3963 227.751 27.0554C227.317 26.706 226.678 26.5312 225.834 26.5312H222.536L221.896 30.4432ZM241.191 42.3707C239.946 42.3707 238.868 42.1534 237.956 41.7188C237.053 41.2756 236.388 40.6193 235.962 39.75C235.536 38.8807 235.429 37.8026 235.642 36.5156C235.83 35.4247 236.184 34.5128 236.703 33.7798C237.232 33.0384 237.875 32.4418 238.634 31.9901C239.392 31.5384 240.232 31.1932 241.152 30.9545C242.081 30.7159 243.04 30.554 244.029 30.4688C245.171 30.3494 246.1 30.2344 246.816 30.1236C247.54 30.0128 248.081 29.8551 248.439 29.6506C248.797 29.4375 249.015 29.1222 249.091 28.7045V28.6278C249.219 27.8267 249.07 27.2045 248.644 26.7614C248.226 26.3097 247.557 26.0838 246.637 26.0838C245.665 26.0838 244.838 26.2969 244.157 26.723C243.483 27.1491 243.002 27.6903 242.712 28.3466L237.752 27.9375C238.195 26.7443 238.864 25.7131 239.759 24.8438C240.662 23.9659 241.749 23.2926 243.019 22.8239C244.289 22.3466 245.712 22.108 247.289 22.108C248.38 22.108 249.398 22.2358 250.344 22.4915C251.299 22.7472 252.121 23.1435 252.811 23.6804C253.51 24.2173 254.013 24.9077 254.32 25.7514C254.635 26.5866 254.699 27.5881 254.512 28.7557L252.3 42H247.135L247.596 39.277H247.442C247.025 39.8906 246.513 40.4318 245.908 40.9006C245.303 41.3608 244.608 41.723 243.824 41.9872C243.04 42.2429 242.162 42.3707 241.191 42.3707ZM243.377 38.6122C244.169 38.6122 244.898 38.4545 245.563 38.1392C246.236 37.8153 246.79 37.3807 247.225 36.8352C247.668 36.2898 247.949 35.6719 248.069 34.9815L248.401 32.8977C248.23 33.0085 247.983 33.1065 247.659 33.1918C247.344 33.277 246.999 33.358 246.624 33.4347C246.257 33.5028 245.887 33.5668 245.512 33.6264C245.137 33.6776 244.8 33.7287 244.502 33.7798C243.846 33.8736 243.257 34.0227 242.738 34.2273C242.218 34.4318 241.796 34.7088 241.472 35.0582C241.148 35.3991 240.948 35.8253 240.871 36.3366C240.752 37.0781 240.926 37.6449 241.395 38.0369C241.873 38.4205 242.533 38.6122 243.377 38.6122ZM272.224 30.0085L271.508 34.2912H261.255L261.958 30.0085H272.224ZM265.027 22.3636L261.754 42H256.564L259.836 22.3636H265.027ZM276.903 22.3636L273.63 42H268.466L271.738 22.3636H276.903ZM278.45 26.6463L279.166 22.3636H296.961L296.245 26.6463H289.93L287.386 42H282.183L284.74 26.6463H278.45Z" fill="#3C7070"/>
</svg>
