<svg width="70" height="50" viewBox="0 0 70 50" fill="none" xmlns="http://www.w3.org/2000/svg">
<g clip-path="url(#clip0_20_669)">
<path d="M25.3965 5.50415H44.2069V42.1837H25.3965V5.50415Z" fill="#FF5F00"/>
<path d="M26.5888 23.8485C26.5886 20.3083 27.3284 16.815 28.7518 13.6356C30.1751 10.4561 32.2443 7.67475 34.8012 5.50408C25.984 -2.0113 13.3252 -0.914922 5.72319 8.01839C2.05741 12.3127 0.0185547 17.9688 0.0185547 23.8439C0.0185547 29.7189 2.05741 35.375 5.72319 39.6693C13.328 48.6057 25.9868 49.7021 34.8012 42.1836C32.2453 40.0141 30.1767 37.2342 28.7533 34.0564C27.33 30.8787 26.5896 27.3871 26.5888 23.8485Z" fill="#EB001B"/>
<path d="M69.586 23.8485C69.5786 28.2369 68.4386 32.5339 66.2972 36.245C64.1559 39.9562 61.1002 42.9308 57.4816 44.8266C53.8512 46.7397 49.8045 47.5059 45.7974 47.0389C41.7903 46.5719 37.982 44.8904 34.8016 42.1837C37.3558 40.0118 39.4232 37.231 40.8464 34.0531C42.2695 30.8752 43.0109 27.3841 43.014 23.8454C43.011 20.306 42.2694 16.8141 40.8458 13.6356C39.4221 10.4572 37.3539 7.67604 34.7988 5.50412C37.9799 2.79656 41.7892 1.11452 45.7974 0.647563C49.8055 0.180602 53.8532 0.947275 57.4844 2.86119C61.103 4.757 64.1587 7.7316 66.3 11.4428C68.4414 15.1539 69.5814 19.4509 69.5888 23.8393V23.8485H69.586Z" fill="#F79E1B"/>
</g>
<defs>
<clipPath id="clip0_20_669">
<rect width="70" height="49" fill="white" transform="translate(0 0.5)"/>
</clipPath>
</defs>
</svg>
