<svg width="92" height="32" viewBox="0 0 92 32" fill="none" xmlns="http://www.w3.org/2000/svg">
<g clip-path="url(#clip0_20_657)">
<path d="M65.5107 15.1184V31.8368H73.759V22.4327H82.0602C86.3958 22.4327 90.097 19.396 91.5245 15.1184H65.5107Z" fill="#006848"/>
<path d="M65.1406 0C65.1671 0.84898 65.2728 1.69796 65.4314 2.48163C65.4579 2.6449 65.5107 2.84082 65.5372 3.00408C65.5636 3.06939 65.5636 3.13469 65.59 3.23265C67.0705 9.01225 71.4326 13.1918 76.5878 13.1918H91.8153C91.9211 12.5388 91.974 11.8857 91.974 11.2C91.974 7.93469 90.8372 4.99592 89.013 2.93878C87.4004 1.1102 85.259 0 82.8797 0H65.1406Z" fill="url(#paint0_linear_20_657)"/>
<path d="M50.8908 3.36327L45.1276 18.8082H44.546V0H36.3506V31.8367H43.3035C45.1276 31.8367 46.7931 30.5306 47.5598 28.4735L53.323 13.0286H53.9046V31.8367H62.1V0H55.1471C53.323 0 51.6575 1.30612 50.8908 3.36327Z" fill="#006848"/>
<path d="M12.6897 4.17959L16.1264 18.8082H16.708L20.1184 4.17959C20.7 1.69796 22.5241 0 24.6126 0H32.808V31.8367H24.6126V13.0286H24.031L19.3253 31.8367H13.4828L8.77701 13.0286H8.1954V31.8367H0V0H8.1954C10.2839 0 12.108 1.69796 12.6897 4.17959Z" fill="#006848"/>
</g>
<defs>
<linearGradient id="paint0_linear_20_657" x1="64.6859" y1="659.993" x2="2747.67" y2="659.993" gradientUnits="userSpaceOnUse">
<stop stop-color="#02AFFF"/>
<stop offset="1" stop-color="#1F5BDE"/>
</linearGradient>
<clipPath id="clip0_20_657">
<rect width="92" height="32" fill="white"/>
</clipPath>
</defs>
</svg>
