<svg width="92" height="32" viewBox="0 0 92 32" fill="none" xmlns="http://www.w3.org/2000/svg">
<g clip-path="url(#clip0_20_638)">
<mask id="mask0_20_638" style="mask-type:alpha" maskUnits="userSpaceOnUse" x="0" y="0" width="92" height="32">
<path fill-rule="evenodd" clip-rule="evenodd" d="M0 0.736328H91.7311V31.4612H0" fill="white"/>
</mask>
<g mask="url(#mask0_20_638)">
<path d="M32.3201 31.0562L36.9679 1.27686H44.3987L39.7491 31.0562H32.3201Z" fill="#005CA3"/>
</g>
<mask id="mask1_20_638" style="mask-type:alpha" maskUnits="userSpaceOnUse" x="0" y="0" width="92" height="31">
<path fill-rule="evenodd" clip-rule="evenodd" d="M0 0.736328H92V30.7363H0" fill="white"/>
</mask>
<g mask="url(#mask1_20_638)">
<path d="M66.8815 1.97356C65.4087 1.3871 63.0789 0.736328 60.1972 0.736328C52.8369 0.736328 47.6539 4.69584 47.6237 10.3561C47.5616 14.5331 51.334 16.8525 54.1553 18.2448C57.0388 19.6675 58.02 20.5963 58.02 21.8638C57.9899 23.8124 55.6884 24.711 53.5432 24.711C50.5675 24.711 48.9723 24.2475 46.5502 23.1635L45.5689 22.7L44.5273 29.2267C46.2751 30.0307 49.4939 30.7439 52.8369 30.7742C60.6568 30.7742 65.7476 26.8771 65.8079 20.8442C65.8399 17.5335 63.8454 14.9985 59.5531 12.9251C56.9447 11.5952 55.3513 10.6966 55.3513 9.3364C55.3832 8.09917 56.6999 6.82978 59.6454 6.82978C61.5492 6.77326 63.4421 7.15391 65.1958 7.94594L65.87 8.25241L66.8815 1.97167V1.97356Z" fill="#005CA3"/>
</g>
<path fill-rule="evenodd" clip-rule="evenodd" d="M79.9891 1.2749H85.7391L91.7315 31.0562H84.8509C84.8509 31.0562 84.1786 27.6346 83.9645 26.5883H74.4248L72.8644 31.0562H65.0674L76.1074 3.74521C76.8681 1.81353 78.2163 1.2749 79.9891 1.2749ZM79.5308 12.1733C79.5308 12.1733 77.1778 18.7957 76.5638 20.5046H82.742C82.4359 19.0166 81.0294 11.8885 81.0294 11.8885L80.5092 9.32134C80.2863 9.99559 79.9625 10.9237 79.7485 11.5359C79.6105 11.935 79.5185 12.1985 79.5308 12.1733Z" fill="#005CA3"/>
<path d="M26.1135 1.2749L18.8349 21.5838L18.0388 17.4647C16.6941 12.712 12.4745 7.54853 7.7666 4.98134L14.4313 31.0252H22.292L33.9707 1.2749H26.1118H26.1135Z" fill="#005CA3"/>
<path d="M12.0785 1.2749H0.122077L0 1.87553C9.32561 4.34778 15.502 10.3037 18.0408 17.4647L15.4401 3.77815C15.0155 1.87553 13.6992 1.3369 12.0785 1.2749Z" fill="#FFAD30"/>
</g>
<defs>
<clipPath id="clip0_20_638">
<rect width="92" height="31" fill="white" transform="translate(0 0.5)"/>
</clipPath>
</defs>
</svg>
