<svg width="44" height="25" viewBox="0 0 44 25" fill="none" xmlns="http://www.w3.org/2000/svg">
<path fill-rule="evenodd" clip-rule="evenodd" d="M25.3029 6.66383C25.3029 8.03183 25.2808 9.4022 25.3176 10.7702C25.3275 11.117 25.4725 11.4946 25.6569 11.7986C26.0306 12.4137 26.5665 12.4517 27.1368 11.9981C27.9309 11.3663 28.5577 10.5992 29.1305 9.78458C30.6252 7.65183 31.8814 5.3956 32.8598 2.99923C32.8819 2.94698 32.9065 2.89473 32.9314 2.84248C33.3149 1.96848 33.558 1.84022 34.5462 1.83547C36.8497 1.8236 39.1559 1.78322 41.4593 1.77372C41.8305 1.77135 42.214 1.83073 42.5705 1.93523C43.1283 2.0991 43.3744 2.47198 43.2217 3.01585C43.0425 3.64998 42.8188 4.2841 42.509 4.8636C41.4839 6.77783 40.0898 8.45458 38.7527 10.167C38.0422 11.079 37.3266 11.9886 36.6678 12.9362C35.9524 13.9646 36.0311 14.6842 36.9284 15.5701C38.0764 16.703 39.3009 17.767 40.4121 18.9355C41.27 19.838 42.0247 20.8402 42.7745 21.833C42.9982 22.1298 43.1111 22.536 43.1799 22.9088C43.3129 23.638 43.0201 24.0749 42.2829 24.2745C41.9141 24.3742 41.5156 24.4098 41.1299 24.4193C39.146 24.4692 37.1597 24.5262 35.1758 24.5262C34.1529 24.5262 33.2015 24.1486 32.4616 23.4907C31.4463 22.5929 30.5293 21.5883 29.5656 20.6336C29.1551 20.2275 28.7298 19.8308 28.2971 19.4413C28.1521 19.3107 27.9776 19.2062 27.8006 19.116C27.2622 18.8357 26.8713 18.8927 26.4141 19.2822C25.8142 19.7952 25.5586 20.4816 25.443 21.2131C25.3474 21.8211 25.3275 22.4386 25.2709 23.0513C25.1996 23.8493 24.7916 24.3338 23.9705 24.3718C21.1409 24.5096 18.304 24.5856 15.6836 23.2793C13.2596 22.0705 11.0889 20.5576 9.35335 18.4747C5.65356 14.0287 2.82156 9.0982 0.434521 3.90648C0.294396 3.61435 0.15673 3.32223 0.0608547 3.01823C-0.128437 2.42685 0.129688 1.99935 0.754104 1.86872C1.04173 1.80935 1.33919 1.79035 1.63419 1.7856C3.50006 1.76898 5.3684 1.75948 7.23427 1.7476C8.2299 1.74285 8.83219 2.12285 9.21323 3.00398C10.2039 5.2911 11.4011 7.47845 12.6598 9.63495C13.1785 10.5232 13.7882 11.3521 14.6314 11.9886C15.0051 12.2736 15.4181 12.4755 15.9073 12.3211C16.0597 12.2712 16.2146 12.1525 16.3031 12.0242C16.6816 11.478 16.7751 10.8438 16.866 10.2073C17.0897 8.6612 17.1389 7.1127 16.9594 5.56185C16.9004 5.05123 16.7923 4.54773 16.6718 4.0466C16.4555 3.13698 15.777 2.70235 14.892 2.48148C14.7101 2.43635 14.5355 2.35085 14.3585 2.28435C14.4716 2.10623 14.5626 1.90435 14.7076 1.75235C15.1378 1.29873 15.6909 1.0541 16.3178 0.961476C18.5845 0.617101 20.8558 0.621851 23.1322 0.859351C23.3657 0.883101 23.6017 0.923476 23.8304 0.982851C24.853 1.24885 25.1628 1.5671 25.3078 2.73323C25.416 3.62148 25.3275 4.53348 25.3275 5.4336C25.3275 5.84448 25.3275 6.25535 25.3275 6.6662C25.3179 6.66383 25.3103 6.66383 25.3029 6.66383Z" fill="#E2D9D9"/>
</svg>
