<svg width="37" height="36" viewBox="0 0 37 36" fill="none" xmlns="http://www.w3.org/2000/svg">
<path fill-rule="evenodd" clip-rule="evenodd" d="M3.81146 26.2798L0.765625 35.4167L10.6823 32.8075C13.101 34.0813 15.855 34.806 18.7794 34.806C28.3906 34.806 36.1823 27.0144 36.1823 17.4029C36.1823 7.79167 28.3906 0 18.7794 0C9.16792 0 1.37625 7.79167 1.37625 17.4029C1.37625 20.6467 2.26596 23.6804 3.81146 26.2798ZM26.116 19.9396C26.116 19.9396 29.0794 21.6763 29.8829 23.195C30.225 23.8404 30.1058 24.6335 29.5894 25.1515L28.5158 26.2248C25.1102 29.6304 21.2658 27.9535 17.8602 24.5481L14.7479 21.4356L11.6355 18.3233C8.23 14.9179 6.55319 11.0733 9.95869 7.66779L11.0322 6.59429C11.5488 6.07769 12.342 5.95802 12.988 6.29996C14.5067 7.10356 16.2433 10.067 16.2433 10.067C16.6256 10.7374 16.6683 11.5459 15.9869 11.9288C15.9869 11.9288 14.8321 12.8917 14.6661 13.1367C13.9083 14.2552 13.9376 15.2915 14.9836 16.3375L17.4146 18.7685L19.8454 21.1994C20.8915 22.2454 21.9277 22.2748 23.0465 21.5169C23.2913 21.3508 24.2542 20.196 24.2542 20.196C24.6365 19.5146 25.4456 19.5575 26.116 19.9396Z" fill="#E2D9D9"/>
</svg>
